<?xml version="1.0" encoding="UTF-8" standalone="no"?>
<!-- Created with Inkscape (http://www.inkscape.org/) -->

<svg
   xmlns:dc="http://purl.org/dc/elements/1.1/"
   xmlns:cc="http://creativecommons.org/ns#"
   xmlns:rdf="http://www.w3.org/1999/02/22-rdf-syntax-ns#"
   xmlns:svg="http://www.w3.org/2000/svg"
   xmlns="http://www.w3.org/2000/svg"
   xmlns:xlink="http://www.w3.org/1999/xlink"
   xmlns:sodipodi="http://sodipodi.sourceforge.net/DTD/sodipodi-0.dtd"
   xmlns:inkscape="http://www.inkscape.org/namespaces/inkscape"
   width="210mm"
   height="297mm"
   id="svg2"
   version="1.1"
   inkscape:version="0.48.4 r9939"
   sodipodi:docname="thought-logo-original.svg">
  <defs
     id="defs4">
    <filter
       inkscape:collect="always"
       id="filter3810">
      <feGaussianBlur
         inkscape:collect="always"
         stdDeviation="5.1554862"
         id="feGaussianBlur3812" />
    </filter>
    <linearGradient
       inkscape:collect="always"
       x1="41.688999"
       y1="340.63"
       gradientTransform="matrix(0.2337,0,0,0.24524,0.42947,-93.923)"
       x2="463.22"
       gradientUnits="userSpaceOnUse"
       y2="-130.78999"
       id="linearGradient9777">
      <stop
         offset="0"
         style="stop-color:rgb(254, 253, 183)"
         id="stop3261" />
      <stop
         offset="1"
         style="stop-color:rgb(245, 240, 108)"
         id="stop3267" />
    </linearGradient>
    <linearGradient
       inkscape:collect="always"
       x1="351.57999"
       y1="584.52002"
       gradientTransform="matrix(0,0.14602,-0.18189,0,120.35,-39.192)"
       x2="743.10999"
       gradientUnits="userSpaceOnUse"
       y2="393.26999"
       id="linearGradient9779">
      <stop
         offset="0"
         style="stop-color:rgb(255, 255, 255)"
         id="stop1502" />
      <stop
         offset="1"
         style="stop-color:rgb(255, 255, 255);stop-opacity:0"
         id="stop1504" />
    </linearGradient>
    <linearGradient
       inkscape:collect="always"
       x1="223.7"
       y1="823.60999"
       gradientTransform="matrix(0.2337,0,0,0.24524,-30.007,-133.88)"
       x2="190.95"
       gradientUnits="userSpaceOnUse"
       y2="882.59003"
       id="linearGradient9781">
      <stop
         offset="0"
         style="stop-color:rgb(253, 251, 99)"
         id="stop4155" />
      <stop
         offset="1"
         style="stop-color:rgb(226, 217, 74)"
         id="stop4157" />
    </linearGradient>
    <linearGradient
       inkscape:collect="always"
       x1="148.7"
       y1="318.69"
       gradientTransform="matrix(2.3454,2.3434,-2.3454,2.3434,888.99,-800.77)"
       x2="185.48"
       gradientUnits="userSpaceOnUse"
       y2="318.69"
       id="linearGradient7819">
      <stop
         offset="0"
         style="stop-color:rgb(255, 145, 145)"
         id="stop4256" />
      <stop
         offset="1"
         style="stop-color:rgb(181, 88, 88)"
         id="stop4258" />
    </linearGradient>
    <linearGradient
       inkscape:collect="always"
       x1="331.72"
       y1="437.79001"
       gradientTransform="matrix(2.5278,2.5256,-2.5278,2.5256,565.91,-1456.1)"
       x2="365.75"
       gradientUnits="userSpaceOnUse"
       y2="437.79001"
       id="linearGradient7812">
      <stop
         offset="0"
         style="stop-color:rgb(255, 255, 255)"
         id="stop3687" />
      <stop
         offset="1"
         style="stop-color:rgb(255, 221, 124)"
         id="stop3711" />
    </linearGradient>
    <linearGradient
       inkscape:collect="always"
       x1="335.72"
       y1="414.35999"
       gradientTransform="matrix(2.5278,2.5256,-2.5278,2.5256,565.91,-1456.1)"
       x2="353.75"
       gradientUnits="userSpaceOnUse"
       y2="414.35999"
       id="linearGradient7803">
      <stop
         offset="0"
         style="stop-color:rgb(255, 255, 255);stop-opacity:.82653"
         id="stop3708" />
      <stop
         offset="1"
         style="stop-color:rgb(255, 255, 255);stop-opacity:0"
         id="stop3710" />
    </linearGradient>
    <linearGradient
       y2="882.59003"
       x2="190.95"
       y1="823.60999"
       x1="223.7"
       gradientTransform="matrix(0.2337,0,0,0.24524,-30.007,-133.88)"
       gradientUnits="userSpaceOnUse"
       id="linearGradient3161"
       xlink:href="#linearGradient9781"
       inkscape:collect="always" />
    <linearGradient
       inkscape:collect="always"
       xlink:href="#linearGradient9777"
       id="linearGradient4268"
       gradientUnits="userSpaceOnUse"
       gradientTransform="matrix(0.2337,0,0,0.24524,0.42947,-93.923)"
       x1="41.688999"
       y1="340.63"
       x2="463.22"
       y2="-130.78999" />
    <linearGradient
       inkscape:collect="always"
       xlink:href="#linearGradient9779"
       id="linearGradient4270"
       gradientUnits="userSpaceOnUse"
       gradientTransform="matrix(0,0.14602,-0.18189,0,120.35,-39.192)"
       x1="351.57999"
       y1="584.52002"
       x2="743.10999"
       y2="393.26999" />
    <linearGradient
       inkscape:collect="always"
       xlink:href="#linearGradient9781"
       id="linearGradient4272"
       gradientUnits="userSpaceOnUse"
       gradientTransform="matrix(0.2337,0,0,0.24524,-30.007,-133.88)"
       x1="223.7"
       y1="823.60999"
       x2="190.95"
       y2="882.59003" />
    <linearGradient
       inkscape:collect="always"
       xlink:href="#linearGradient9781"
       id="linearGradient4275"
       gradientUnits="userSpaceOnUse"
       gradientTransform="matrix(0.52060557,0,0,-0.524221,164.23427,876.82322)"
       x1="223.7"
       y1="823.60999"
       x2="190.95"
       y2="882.59003" />
    <linearGradient
       inkscape:collect="always"
       xlink:href="#linearGradient9779"
       id="linearGradient4279"
       gradientUnits="userSpaceOnUse"
       gradientTransform="matrix(0,-0.31212996,-0.40519019,0,499.17947,674.41971)"
       x1="351.57999"
       y1="584.52002"
       x2="743.10999"
       y2="393.26999" />
    <linearGradient
       inkscape:collect="always"
       xlink:href="#linearGradient9777"
       id="linearGradient4282"
       gradientUnits="userSpaceOnUse"
       gradientTransform="matrix(0.49955329,0,0,0.54631283,-589.7255,-440.30893)"
       x1="41.688999"
       y1="340.63"
       x2="463.22"
       y2="-130.78999" />
    <linearGradient
       inkscape:collect="always"
       xlink:href="#linearGradient9777"
       id="linearGradient4287"
       gradientUnits="userSpaceOnUse"
       gradientTransform="matrix(0.49955329,0,0,0.54631283,-589.7255,-440.30893)"
       x1="41.688999"
       y1="340.63"
       x2="463.22"
       y2="-130.78999" />
    <linearGradient
       inkscape:collect="always"
       xlink:href="#linearGradient9777"
       id="linearGradient4291"
       gradientUnits="userSpaceOnUse"
       gradientTransform="matrix(0,-0.49955329,-0.54631283,0,440.30893,589.7255)"
       x1="41.688999"
       y1="340.63"
       x2="463.22"
       y2="-130.78999" />
    <linearGradient
       inkscape:collect="always"
       xlink:href="#linearGradient9777"
       id="linearGradient4295"
       gradientUnits="userSpaceOnUse"
       gradientTransform="matrix(0,-0.49955329,-0.54631283,0,440.30893,589.7255)"
       x1="41.688999"
       y1="340.63"
       x2="463.22"
       y2="-130.78999" />
    <filter
       inkscape:collect="always"
       id="filter4321">
      <feGaussianBlur
         inkscape:collect="always"
         stdDeviation="5.660625"
         id="feGaussianBlur4323" />
    </filter>
    <filter
       inkscape:collect="always"
       id="filter4336"
       x="-0.13144161"
       width="1.2628832"
       y="-0.13686276"
       height="1.2737255">
      <feGaussianBlur
         inkscape:collect="always"
         stdDeviation="10.542713"
         id="feGaussianBlur4338" />
    </filter>
  </defs>
  <sodipodi:namedview
     id="base"
     pagecolor="#ffffff"
     bordercolor="#666666"
     borderopacity="1.0"
     inkscape:pageopacity="0.0"
     inkscape:pageshadow="2"
     inkscape:zoom="0.7"
     inkscape:cx="71.361486"
     inkscape:cy="445.51439"
     inkscape:document-units="px"
     inkscape:current-layer="layer1"
     showgrid="false"
     inkscape:window-width="1318"
     inkscape:window-height="743"
     inkscape:window-x="48"
     inkscape:window-y="0"
     inkscape:window-maximized="1"
     showguides="true"
     inkscape:guide-bbox="true" />
  <metadata
     id="metadata7">
    <rdf:RDF>
      <cc:Work
         rdf:about="">
        <dc:format>image/svg+xml</dc:format>
        <dc:type
           rdf:resource="http://purl.org/dc/dcmitype/StillImage" />
        <dc:title />
      </cc:Work>
    </rdf:RDF>
  </metadata>
  <g
     inkscape:label="Ebene 1"
     inkscape:groupmode="layer"
     id="layer1">
    <g
       id="g3014"
       inkscape:label="Taso 1"
       transform="translate(-233.87163,60.755783)"
       style="filter:url(#filter3810)">
      <path
         inkscape:connector-curvature="0"
         id="path3016"
         style="fill:#ffffff;stroke:#000000;stroke-width:6"
         d="m 390.1,595.62 c -2.82,-3 -2.76,-6.78 0.14,-9.51 3.01,-2.82 6.78,-2.77 9.51,0.14 2.83,3 2.77,6.78 -0.14,9.51 -3,2.82 -6.78,2.76 -9.51,-0.14 z m 20.59,-12.25 c -7.53,-4.09 -7.41,-15.98 0.21,-19.92 5.74,-2.97 12.71,-0.97 15.51,4.45 5.34,10.32 -5.52,21 -15.72,15.47 z m 29.24,-18.68 c -9.87,-5.28 -13.81,-17.31 -8.75,-26.76 5.27,-9.87 17.3,-13.8 26.75,-8.75 9.87,5.28 13.8,17.3 8.75,26.75 -5.28,9.87 -17.3,13.81 -26.75,8.76 z m 149.11,-18.3 c -12.88,-2.8 -21.11,-6.21 -30.96,-12.85 l -5.34,-3.6 -9.16,4.52 c -5.03,2.48 -12.3,5.17 -16.15,5.98 -36.02,7.51 -71.3,-14.34 -80.5,-49.88 -1.25,-4.84 -2.27,-7.01 -3.17,-6.77 -0.73,0.2 -4.93,0.59 -9.33,0.87 -14.57,0.95 -26.44,-3.74 -36.7,-14.49 -6.1,-6.4 -8.75,-10.94 -11.19,-19.17 -3.28,-11.07 -1.27,-26.63 4.72,-36.43 3.78,-6.2 12.29,-14.13 18.51,-17.25 l 5.75,-2.89 1.25,-6.5 c 4.73,-24.59 27.01,-43 52.07,-43 h 5.8 l 0.64,-6.08 c 2.49,-23.82 20.48,-45.6 44.65,-54.06 5.52,-1.93 8.53,-2.27 20,-2.27 11.47,0 14.48,0.34 20,2.27 18.26,6.39 32.79,19.82 40.13,37.06 1.57,3.7 3.36,6.49 4.08,6.38 0.71,-0.11 3.99,-1.19 7.29,-2.38 8.17,-2.97 22.66,-3.67 31.73,-1.54 17.52,4.12 33.12,16.4 40.49,31.85 2.31,4.84 3.12,5.73 4.78,5.25 4.46,-1.29 18.37,-1.63 24,-0.58 9.65,1.81 19.76,7.2 27.51,14.69 22.33,21.55 22.87,55.19 1.27,77.57 -11.45,11.86 -25.83,17.48 -42.42,16.58 l -8.63,-0.47 -1.2,7.44 c -6.69,41.45 -42.12,71.47 -84.03,71.2 -5.23,-0.04 -12.38,-0.69 -15.89,-1.45 z"
         inkscape:export-ydpi="241.6386"
         inkscape:export-filename="C:\Documents and Settings\HP_Omistaja\Työpöytä\f.png"
         inkscape:export-xdpi="241.6386" />
    </g>
    <path
       inkscape:connector-curvature="0"
       id="path2393"
       style="fill:#ffffff;stroke:#000000;stroke-width:6"
       d="m 156.22837,656.37578 c -2.82,-3 -2.76,-6.78 0.14,-9.51 3.01,-2.82 6.78,-2.77 9.51,0.14 2.83,3 2.77,6.78 -0.14,9.51 -3,2.82 -6.78,2.76 -9.51,-0.14 z m 20.59,-12.25 c -7.53,-4.09 -7.41,-15.98 0.21,-19.92 5.74,-2.97 12.71,-0.97 15.51,4.45 5.34,10.32 -5.52,21 -15.72,15.47 z m 29.24,-18.68 c -9.87,-5.28 -13.81,-17.31 -8.75,-26.76 5.27,-9.87 17.3,-13.8 26.75,-8.75 9.87,5.28 13.8,17.3 8.75,26.75 -5.28,9.87 -17.3,13.81 -26.75,8.76 z m 149.11,-18.3 c -12.88,-2.8 -21.11,-6.21 -30.96,-12.85 l -5.34,-3.6 -9.16,4.52 c -5.03,2.48 -12.3,5.17 -16.15,5.98 -36.02,7.51 -71.3,-14.34 -80.5,-49.88 -1.25,-4.84 -2.27,-7.01 -3.17,-6.77 -0.73,0.2 -4.93,0.59 -9.33,0.87 -14.57,0.95 -26.44,-3.74 -36.7,-14.49 -6.1,-6.4 -8.75,-10.94 -11.19,-19.17 -3.28,-11.07 -1.27,-26.63 4.72,-36.43 3.78,-6.2 12.29,-14.13 18.51,-17.25 l 5.75,-2.89 1.25,-6.5 c 4.73,-24.59 27.01,-43 52.07,-43 h 5.8 l 0.64,-6.08 c 2.49,-23.82 20.48,-45.6 44.65,-54.06 5.52,-1.93 8.53,-2.27 20,-2.27 11.47,0 14.48,0.34 20,2.27 18.26,6.39 32.79,19.82 40.13,37.06 1.57,3.7 3.36,6.49 4.08,6.38 0.71,-0.11 3.99,-1.19 7.29,-2.38 8.17,-2.97 22.66,-3.67 31.73,-1.54 17.52,4.12 33.12,16.4 40.49,31.85 2.31,4.84 3.12,5.73 4.78,5.25 4.46,-1.29 18.37,-1.63 24,-0.58 9.65,1.81 19.76,7.2 27.51,14.69 22.33,21.55 22.87,55.19 1.27,77.57 -11.45,11.86 -25.83,17.48 -42.42,16.58 l -8.63,-0.47 -1.2,7.44 c -6.69,41.45 -42.12,71.47 -84.03,71.2 -5.23,-0.04 -12.38,-0.69 -15.89,-1.45 z"
       inkscape:export-ydpi="241.6386"
       inkscape:export-filename="C:\Documents and Settings\HP_Omistaja\Työpöytä\f.png"
       inkscape:export-xdpi="241.6386" />
    <path
       inkscape:export-xdpi="241.6386"
       inkscape:export-filename="C:\Documents and Settings\HP_Omistaja\Työpöytä\f.png"
       inkscape:export-ydpi="241.6386"
       d="m 156.22837,656.37578 c -2.82,-3 -2.76,-6.78 0.14,-9.51 3.01,-2.82 6.78,-2.77 9.51,0.14 2.83,3 2.77,6.78 -0.14,9.51 -3,2.82 -6.78,2.76 -9.51,-0.14 z m 20.59,-12.25 c -7.53,-4.09 -7.41,-15.98 0.21,-19.92 5.74,-2.97 12.71,-0.97 15.51,4.45 5.34,10.32 -5.52,21 -15.72,15.47 z m 29.24,-18.68 c -9.87,-5.28 -13.81,-17.31 -8.75,-26.76 5.27,-9.87 17.3,-13.8 26.75,-8.75 9.87,5.28 13.8,17.3 8.75,26.75 -5.28,9.87 -17.3,13.81 -26.75,8.76 z m 149.11,-18.3 c -12.88,-2.8 -21.11,-6.21 -30.96,-12.85 l -5.34,-3.6 -9.16,4.52 c -5.03,2.48 -12.3,5.17 -16.15,5.98 -36.02,7.51 -71.3,-14.34 -80.5,-49.88 -1.25,-4.84 -2.27,-7.01 -3.17,-6.77 -0.73,0.2 -4.93,0.59 -9.33,0.87 -14.57,0.95 -26.44,-3.74 -36.7,-14.49 -6.1,-6.4 -8.75,-10.94 -11.19,-19.17 -3.28,-11.07 -1.27,-26.63 4.72,-36.43 3.78,-6.2 12.29,-14.13 18.51,-17.25 l 5.75,-2.89 1.25,-6.5 c 4.73,-24.59 27.01,-43 52.07,-43 h 5.8 l 0.64,-6.08 c 2.49,-23.82 20.48,-45.6 44.65,-54.06 5.52,-1.93 8.53,-2.27 20,-2.27 11.47,0 14.48,0.34 20,2.27 18.26,6.39 32.79,19.82 40.13,37.06 1.57,3.7 3.36,6.49 4.08,6.38 0.71,-0.11 3.99,-1.19 7.29,-2.38 8.17,-2.97 22.66,-3.67 31.73,-1.54 17.52,4.12 33.12,16.4 40.49,31.85 2.31,4.84 3.12,5.73 4.78,5.25 4.46,-1.29 18.37,-1.63 24,-0.58 9.65,1.81 19.76,7.2 27.51,14.69 22.33,21.55 22.87,55.19 1.27,77.57 -11.45,11.86 -25.83,17.48 -42.42,16.58 l -8.63,-0.47 -1.2,7.44 c -6.69,41.45 -42.12,71.47 -84.03,71.2 -5.23,-0.04 -12.38,-0.69 -15.89,-1.45 z"
       style="fill:none;stroke:#000000;stroke-width:6"
       id="path4110"
       inkscape:connector-curvature="0" />
    <path
       style="fill:#000000;stroke:none;filter:url(#filter4336)"
       d="m 243.875,402.375 0,1 0,1 0,182.875 59.78125,0 c 0.0199,-0.01 0.0426,-0.0214 0.0625,-0.0312 l 9.15625,-4.53125 5.34375,3.59375 c 0.50932,0.34334 0.99848,0.64232 1.5,0.96875 l 91.625,0 c 9.96936,-6.39975 18.50498,-14.86181 25.03125,-24.875 l 0,-160 -192.5,0 z"
       id="path4325"
       inkscape:connector-curvature="0" />
    <rect
       id="rect2284"
       style="fill:#d0c36b;fill-rule:evenodd"
       transform="matrix(0,-1,-1,0,0,0)"
       rx="0.66754603"
       ry="0.7331695"
       height="191.80205"
       width="183.22298"
       y="-435.00708"
       x="-578.43732" />
    <rect
       id="rect3269"
       style="fill:url(#linearGradient4282);fill-rule:evenodd;stroke:#f6db32;stroke-width:2.08965826"
       transform="matrix(0,-1,-1,0,0,0)"
       rx="0.65893149"
       ry="0.72062767"
       height="188.51846"
       width="180.85881"
       y="-430.3869"
       x="-581.2478" />
    <path
       inkscape:connector-curvature="0"
       id="path1500"
       d="m 429.08595,579.32994 -90.96452,0.32128 -90.96674,0.32128 c 4.4e-4,0 -28.58319,-274.82912 67.34457,-123.38774 95.92776,151.44139 107.2443,87.40793 114.58669,122.74433 z"
       style="opacity:0.27778003;fill:url(#linearGradient4279);fill-rule:evenodd;stroke-width:1pt"
       sodipodi:nodetypes="ccczc" />
    <path
       inkscape:connector-curvature="0"
       id="path2611"
       style="fill:#808080"
       d="m 406.73781,445.45334 c -3.42813,0.0196 -6.83564,-0.52159 -10.24197,-0.96123 -3.20054,-0.44542 -6.41777,-0.64528 -9.64052,-0.76507 -3.91185,0.0295 -7.81553,0.32115 -11.72177,0.71967 -5.03798,0.49981 -10.07083,0.93559 -15.11209,1.11987 -4.10243,0.15325 -8.20312,-0.0678 -12.30801,0.0373 -3.74894,0.007 -7.47983,0.76759 -11.21035,1.36281 -3.98038,0.63203 -7.96631,1.19441 -11.95519,1.72997 -3.28738,0.62185 -6.58445,1.04564 -9.88995,1.21793 -2.38729,0.0979 -4.7742,0.0302 -7.16125,-0.0322 -1.64061,-0.0442 -3.28108,-0.0944 -4.92157,-0.14433 -1.48056,-0.24923 -2.95379,-0.50367 -4.41958,-0.91831 -1.38426,-0.35388 -2.79088,-0.52651 -4.19943,-0.61899 -1.15248,0.0633 -2.25416,-0.18759 -3.37621,-0.49238 -0.99324,-0.259 -2.00601,-0.30458 -3.01133,-0.36071 -1.14993,-0.0435 -2.30025,-0.071 -3.44722,-0.0874 -1.18344,-0.15128 -2.3426,0.0403 -3.51733,0.27952 -1.21506,0.11524 -2.40394,0.49325 -3.57088,1.01072 -1.56337,0.93573 -3.19924,1.3725 -4.85696,1.62158 -1.16981,0.15384 -2.34275,0.13651 -3.51361,0.10852 -1.0105,-0.0353 -2.02091,-0.0595 -3.03155,-0.0885 l -3.22702,-0.0771 c -0.92228,-0.11837 -1.8892,0.13665 -2.78652,-0.21087 -0.56473,-0.2541 -1.1577,-0.33777 -1.74343,-0.43733 l 5.27453,6.10365 c 0.58533,0.13154 1.16265,0.31115 1.74495,0.46409 0.94146,0.0706 1.88619,0.0501 2.8289,0.0836 1.0753,0.0257 2.15061,0.0514 3.2258,0.0821 1.01318,0.0292 2.0257,0.07 3.03888,0.0838 1.17716,0.007 2.3569,-0.0345 3.52738,-0.24721 1.67853,-0.33414 3.31901,-0.88842 4.92337,-1.74297 1.16851,-0.43188 2.35122,-0.70304 3.54941,-0.86689 1.1455,-0.22391 2.28653,-0.26081 3.43905,-0.17442 1.1502,0.0325 2.30075,0.05 3.44632,0.12508 0.99411,0.0719 1.98732,0.18122 2.9619,0.46643 1.12989,0.27831 2.26514,0.33218 3.40786,0.37552 1.38963,0.12954 2.77437,0.31224 4.13957,0.70846 1.48084,0.38827 2.9833,0.62735 4.48756,0.79163 1.63003,0.034 3.26343,0.078 4.89347,0.11195 2.36953,0.0404 4.73673,0.0276 7.10661,-0.0975 3.30253,-0.19912 6.58388,-0.7195 9.86688,-1.30939 3.99263,-0.54082 7.9802,-1.17267 11.96974,-1.73497 3.70902,-0.60106 7.42047,-1.30367 11.15139,-1.31074 4.09291,-0.0572 8.18047,0.10988 12.27335,-0.097 5.04241,-0.23236 10.07293,-0.72164 15.10938,-1.15734 3.92994,-0.33381 7.86056,-0.54463 11.79302,-0.53085 3.19674,0.15122 6.39221,0.35594 9.57573,0.75818 3.48244,0.42542 6.96335,0.91495 10.45824,1.12146 l -5.32957,-6.01941 z" />
    <path
       d="m 259.52547,567.8175 c 1.82857,-0.17605 3.66062,-0.24661 5.4853,-0.45759 1.6355,-0.1879 3.25206,-0.5034 4.87811,-0.75362 2.15319,-0.31745 4.30672,-0.57295 6.48344,-0.70217 2.60419,-0.12364 5.21188,-0.12656 7.81956,-0.13479 2.79371,0.004 5.59093,0.003 8.38464,-0.007 3.52372,-0.004 7.04394,-0.007 10.56766,-0.007 3.77641,-0.007 7.55284,-6.5e-4 11.33276,-0.007 4.18003,-0.0814 8.35655,0.0466 12.53308,0.19418 4.80125,0.14077 9.606,0.20176 14.40725,0.12029 5.1803,-0.13976 10.36409,-0.23142 15.54439,-0.27459 3.03236,-0.0198 6.06472,-0.0946 9.09007,0.13019 1.67061,0.13979 3.30612,0.46417 4.98024,0.59309 2.82529,0.16317 5.6541,0.0481 8.47939,-0.0606 4.98025,-0.21823 9.94294,-0.63231 14.90564,-1.08625 5.33822,-0.55482 10.69751,-0.9725 16.05328,-1.35228 0.58963,-0.0369 1.17576,-0.0739 1.76537,-0.11081 l -5.1838,-3.47928 c -0.57207,0.0484 -1.14415,0.097 -1.71974,0.1457 -5.32068,0.46549 -10.64488,0.89537 -15.96204,1.4202 -4.98726,0.42034 -9.97804,0.81064 -14.98283,0.98999 -2.86391,0.0664 -5.73483,0.12336 -8.59522,-0.11234 -1.65306,-0.16582 -3.28857,-0.48428 -4.95216,-0.55515 -2.99726,-0.15165 -5.99453,-0.0231 -8.99181,-0.004 -5.15572,0.10022 -10.30794,0.24065 -15.46015,0.33164 -4.82932,0.0471 -9.65514,-0.0471 -14.48095,-0.20768 -4.18705,-0.14209 -8.3706,-0.22188 -12.55765,-0.18298 -3.78344,-0.007 -7.56688,0 -11.35033,-0.007 -3.53074,-10e-4 -7.06148,-0.004 -10.5922,-0.01 -2.80775,-0.0126 -5.61199,-0.0231 -8.41974,-0.0126 -2.62173,0.007 -5.24627,0.0126 -7.86626,0.15132 -2.1974,0.14803 -4.37446,0.41537 -6.55257,0.72626 -1.62253,0.24955 -3.23944,0.53998 -4.8718,0.72756 -1.83381,0.20869 -3.67815,0.27791 -5.51899,0.41868 l 5.34806,3.57357 z"
       style="fill:#000000"
       id="path2577"
       inkscape:connector-curvature="0" />
    <path
       d="m 262.21495,527.09723 c 5.33647,0.0396 10.66874,0.23405 15.99994,0.41867 4.29586,0.0461 8.55661,0.51426 12.82789,0.86372 3.14117,0.38569 6.29638,0.57032 9.45861,0.6791 3.83608,0.16154 7.66866,-0.0988 11.49069,-0.32966 3.20434,-0.23736 6.41922,-0.26373 9.62356,-0.45164 2.70246,-0.18462 5.41193,-0.28351 8.12141,-0.33625 1.97945,-0.0297 3.95892,-0.033 5.93838,-0.0362 2.81127,-0.004 5.62252,-0.0231 8.43728,-0.0263 2.67789,-0.01 5.35929,0.0329 8.04069,0.0263 3.44651,-0.0231 6.89301,-0.0396 10.33952,-0.0396 3.30962,-0.0726 6.61575,-0.21099 9.91837,-0.45494 2.79721,-0.26043 5.57687,-0.66593 8.3776,-0.93295 1.82153,-0.18132 3.65358,-0.21428 5.48213,-0.24067 2.37254,-0.14174 4.74861,-0.26702 7.12466,-0.34944 2.37255,-0.0626 4.74157,-0.0726 7.11412,-0.0693 1.65306,0.0125 3.30613,0.0164 4.95919,0.0231 1.33017,0.007 2.66385,0 3.99402,0.004 h 0.6212 l -5.29961,-3.61644 c -0.20356,0.004 -0.41064,0.004 -0.6142,0.004 -1.33017,0.004 -2.66034,-0.004 -3.99402,0 -1.63199,0.004 -3.264,0.004 -4.896,0.0198 -2.37957,0.0125 -4.76265,0.007 -7.1422,0.079 -2.36905,0.0891 -4.73457,0.28351 -7.10712,0.33954 -1.84257,0.01 -3.68166,0.0528 -5.51021,0.29341 -2.77616,0.31649 -5.54529,0.71537 -8.33199,0.94614 -3.2675,0.24395 -6.54203,0.38901 -9.81656,0.46152 -3.48513,0.004 -6.97024,-0.0164 -10.45186,-0.0396 -2.65681,-0.007 -5.31364,0.0396 -7.96696,0.0265 -2.84285,-0.004 -5.68219,-0.0265 -8.52153,-0.033 -1.97945,0 -3.95891,-0.004 -5.93486,0.056 -2.70245,0.0824 -5.39789,0.22089 -8.09333,0.38242 -3.17977,0.15825 -6.36305,0.25714 -9.53581,0.51758 -3.83608,0.23076 -7.68269,0.40219 -11.52579,0.22416 -3.15521,-0.11861 -6.29638,-0.34615 -9.43052,-0.69228 -4.20812,-0.34615 -8.41622,-0.67912 -12.6447,-0.69891 -5.45299,-0.17471 -10.90633,-0.36922 -16.35512,-0.63624 l 5.30313,3.61972 z"
       style="fill:#000000"
       id="path2585"
       inkscape:connector-curvature="0" />
    <path
       d="m 265.16836,506.70741 c 3.463,-0.0955 6.92881,-0.079 10.39322,-0.0594 2.87794,0.0231 5.75236,0.0165 8.6303,0.0125 3.00429,-0.0198 6.00508,0.0527 9.00586,-0.0626 3.85012,-0.16155 7.66514,-0.6956 11.48368,-1.16043 3.33421,-0.38572 6.65787,-0.86373 10.00962,-1.11097 2.40764,-0.15164 4.8223,-0.15823 7.22995,-0.15823 1.97243,0.0125 3.94488,0.01 5.91731,0.007 2.77968,-0.0659 5.55233,0.0594 8.32849,0.18132 2.84284,0.0527 5.67164,0.33295 8.51098,0.47801 2.34096,0.11541 4.67841,0.16483 7.01937,0.17801 2.60067,0.0396 5.19783,-0.12196 7.78447,-0.33625 3.90277,-0.51757 7.81606,-0.90658 11.7469,-1.14394 2.47434,-0.13841 4.95567,-0.17142 7.43351,-0.18792 1.72326,0 3.44651,0.004 5.17328,0.01 1.62148,-0.0594 3.2289,0.14835 4.83985,0.27692 1.20733,0.27031 2.46029,0.33626 3.66763,0.5835 1.01077,0.22748 2.03912,0.33957 3.07447,0.37913 1.01079,0.0329 2.02158,0.0329 3.03589,0.0329 1.41089,-0.0231 2.82178,0.0263 4.22916,-0.0857 0.77915,-0.0495 1.54425,-0.12851 2.30937,-0.27363 l -5.36279,-3.52081 c -0.74055,0.11206 -1.48461,0.1879 -2.23568,0.23076 -1.42142,0.0528 -2.83933,0.0231 -4.25724,0.0198 -1.00377,0 -2.00754,0 -3.0078,-0.0594 -1.0143,-0.0824 -2.02157,-0.23078 -3.01834,-0.43188 -1.22487,-0.17472 -2.44974,-0.37252 -3.67814,-0.51756 -1.62147,-0.12852 -3.24294,-0.29341 -4.87143,-0.23407 -1.71976,0 -3.43949,-0.007 -5.15925,0.007 -2.44273,0.0264 -4.88196,0.14835 -7.31768,0.3099 -3.9519,0.26702 -7.88274,0.689 -11.81709,1.10437 -2.59717,0.17472 -5.20137,0.32637 -7.80554,0.25384 -2.31991,-0.0198 -4.64331,-0.0495 -6.9597,-0.17142 -2.82881,-0.16813 -5.65411,-0.3989 -8.48993,-0.45494 -2.80423,-0.12531 -5.60496,-0.24725 -8.40919,-0.2011 -1.97596,-0.01 -3.94841,-0.0231 -5.92084,-0.007 -2.41115,0.0198 -4.82583,0.0362 -7.22995,0.21758 -3.32016,0.3 -6.60873,0.81757 -9.91486,1.20656 -3.82905,0.45825 -7.66514,0.94285 -11.52579,1.06152 -3.0043,0.0758 -6.00508,0.0231 -9.00937,0.0362 -2.86389,-0.004 -5.72816,-0.01 -8.59275,0.0126 -3.52128,0.0198 -7.04358,0.0362 -10.56345,-0.056 l 5.3235,3.63291 z"
       style="fill:#000000"
       id="path2587"
       inkscape:connector-curvature="0" />
    <path
       d="m 264.04942,486.07818 c 3.19748,0.0679 6.38997,0.2674 9.582,0.47039 1.90284,0.1122 3.80678,0.25661 5.71002,0.36182 1.76745,0.0877 3.5315,0.18521 5.29894,0.2731 2.62547,0.13261 5.25046,0.27381 7.87561,0.41222 3.8983,0.19907 7.79962,0.3949 11.69739,0.60366 3.78131,0.20202 7.55832,0.43034 11.3372,0.67629 1.69808,0.0542 3.36537,0.40726 5.04508,0.63877 1.45118,0.24201 2.91383,0.1737 4.37364,0.0536 2.28537,-0.31279 4.57858,-0.5096 6.86882,-0.75608 3.09552,-0.2779 6.19289,-0.48638 9.28461,-0.85035 3.20806,-0.40706 6.40649,-0.89718 9.61787,-1.26115 1.7373,-0.0888 3.44205,-0.51627 5.14866,-0.87427 2.43002,-0.40384 4.8581,-0.8243 7.30461,-1.06215 1.51488,-0.13746 3.03297,-0.12617 4.5508,-0.0588 1.44433,0.0567 2.88668,0.14956 4.32895,0.24331 0.9348,0.15063 1.86455,-0.0191 2.79878,-0.11602 0.43203,-0.0322 0.86225,-0.0315 1.29227,-0.0275 l -4.10526,-3.82578 c -0.44764,0.005 -0.89525,0.01 -1.33974,0.0613 -0.90657,0.11168 -1.81113,0.18714 -2.71953,0.0742 -1.44614,-0.0759 -2.8918,-0.15986 -4.33793,-0.23579 -1.51397,-0.0341 -3.02588,-0.002 -4.53427,0.17197 -2.44939,0.29051 -4.88958,0.72351 -7.33198,1.09365 -1.69856,0.31552 -3.38956,0.70078 -5.10285,0.8702 -3.18699,0.43795 -6.36872,0.93561 -9.56059,1.30724 -3.10767,0.34328 -6.22081,0.52777 -9.33299,0.79815 -2.30053,0.22611 -4.59784,0.44578 -6.89735,0.70498 -1.45692,0.068 -2.91288,0.0668 -4.35535,-0.17807 -1.65415,-0.23006 -3.30895,-0.49988 -4.98042,-0.51964 -3.74619,-0.16743 -7.48826,-0.35786 -11.22905,-0.57116 -3.92826,-0.22416 -7.85868,-0.46076 -11.78658,-0.69122 -2.64411,-0.15618 -5.29146,-0.30503 -7.93538,-0.465 -1.7777,-0.10829 -3.5588,-0.20675 -5.33936,-0.31499 -1.86916,-0.10333 -3.73898,-0.16372 -5.60774,-0.26382 -3.24124,-0.15284 -6.48352,-0.31224 -9.71692,-0.59664 l 4.09796,3.85509 z"
       style="fill:#000000"
       id="path2595"
       inkscape:connector-curvature="0" />
    <path
       d="m 261.32876,470.07623 c 0.36255,-0.007 0.72545,-0.0329 1.08835,-0.0231 0.49382,0.0125 3.09695,0.1978 3.46511,0.22087 1.95034,0.13521 3.89962,0.25714 5.84749,0.41868 3.94418,0.28022 7.88555,0.60329 11.84096,0.7846 3.72027,0.21758 7.44052,0.15824 11.1608,0.0231 2.68841,-0.0396 5.36279,-0.22418 8.04418,-0.39559 3.17276,-0.22089 6.34552,-0.43847 9.5253,-0.55056 4.0221,-0.24723 8.05471,-0.389 12.08383,-0.46481 3.35525,-0.056 6.71052,-0.0594 10.06577,-0.0659 4.12738,-0.0125 8.25477,-0.0164 12.38567,-0.0198 4.15196,-0.007 8.30742,0.007 12.45938,0.0198 3.35175,0.01 6.70349,0.01 10.05523,0.004 3.06747,-0.0362 6.1244,-0.29009 9.18135,-0.53406 3.06745,-0.21428 6.14194,-0.20768 9.2094,-0.47142 2.63577,-0.17801 5.23644,-0.59009 7.84414,-0.97581 2.56908,-0.40218 5.16274,-0.58351 7.74938,-0.84724 1.20382,-0.17142 2.40763,-0.34943 3.61498,-0.51427 l -5.29261,-3.49775 c -1.18978,0.17471 -2.37605,0.36922 -3.57286,0.50769 -2.59717,0.25053 -5.19784,0.47472 -7.78096,0.86701 -2.57611,0.38571 -5.15573,0.77472 -7.75641,0.97581 -3.08151,0.23077 -6.17352,0.21099 -9.25503,0.44504 -3.02886,0.25714 -6.05772,0.51428 -9.10062,0.52747 -3.34822,-0.007 -6.69647,-0.007 -10.0447,0 -4.1344,0.0165 -8.26881,0.0263 -12.39971,0.0198 -4.15546,-0.004 -8.30742,-0.0125 -12.45938,-0.0263 -3.34823,0.004 -6.69997,0.004 -10.04821,0.0923 -4.03264,0.10886 -8.06175,0.27033 -12.09087,0.47142 -3.20783,0.10551 -6.40517,0.31318 -9.6095,0.51758 -2.66385,0.17801 -5.3277,0.31648 -7.99858,0.40547 -3.68868,0.15166 -7.37735,0.18792 -11.06953,-0.0297 -3.95156,-0.20768 -7.8961,-0.51755 -11.84238,-0.81096 -3.53039,-0.26703 -7.06534,-0.55054 -10.6031,-0.68901 l 5.30313,3.61644 z"
       style="fill:#000000"
       id="path2597"
       inkscape:connector-curvature="0" />
    <path
       d="m 263.44509,545.41672 c 1.77871,-0.0297 3.55742,-0.0231 5.33612,-0.0198 1.60568,0.01 3.21137,0.007 4.81705,0.004 1.53513,0.004 3.06886,0.004 4.6026,0.007 1.33719,-0.004 2.67438,0.004 4.01156,0.004 1.07748,0 2.15847,0.004 3.23592,0.007 1.00379,0.0527 1.98299,-0.18132 2.97622,-0.28351 1.17224,-0.10552 2.3515,-0.12531 3.52724,-0.13521 1.00728,-0.004 2.01456,0 3.02184,-0.004 1.83205,-0.0461 3.65357,0.13841 5.47862,0.24724 1.83205,0.10217 3.6641,0.13521 5.49615,0.15825 1.34071,-0.01 2.66737,-0.0165 3.99402,0.16153 1.13714,0.14505 2.2813,0.22087 3.42545,0.25055 1.32666,0.0198 2.65332,0.0125 3.97998,0.0125 1.93734,-0.004 3.87471,-0.0231 5.80853,-0.0231 1.9549,0 3.90627,0.01 5.86117,0.0164 1.85312,0.0164 3.70974,-0.0626 5.55933,0.0527 1.96543,0.0924 3.90629,0.37913 5.85767,0.59341 1.35474,0.0758 2.69193,0.25714 4.03965,0.40879 1.38282,0.15493 2.77967,0.17801 4.17653,0.1879 1.58988,0.13186 3.17624,0.2967 4.77316,0.36593 1.71623,0.0659 3.43247,0.0527 5.14871,0.0495 1.83557,0 3.67464,0.007 5.5102,0.004 2.22863,-0.0164 4.45378,-0.01 6.68243,-0.0125 2.36202,-0.007 4.717,-0.21428 7.07904,-0.31317 2.16195,-0.1978 4.32391,-0.35603 6.4964,-0.44504 1.35123,-0.0923 2.7165,0.0396 4.06071,-0.12531 1.43546,-0.15165 2.87093,-0.23078 4.29585,-0.45496 1.47408,-0.19121 2.96569,-0.32966 4.4187,-0.63295 1.20733,-0.24726 2.36904,-0.62966 3.59742,-0.79449 1.30561,-0.12865 2.62174,-0.12865 3.93787,-0.1352 1.47407,-0.14835 2.94814,-0.27692 4.42922,-0.34944 0.78617,-0.10217 1.57584,-0.18791 2.36553,-0.26704 l -5.31717,-3.5439 c -0.78617,0.0824 -1.57586,0.17803 -2.36553,0.23077 -1.46705,0.0956 -2.93059,0.25714 -4.40114,0.32637 -1.34071,0.0126 -2.68843,0.01 -4.0186,0.20109 -1.21435,0.21759 -2.37956,0.6066 -3.5904,0.82417 -1.46353,0.26373 -2.94111,0.41867 -4.41167,0.60659 -1.42143,0.21099 -2.85337,0.28021 -4.28182,0.41867 -1.33016,0.0726 -2.66735,0.0396 -3.99752,0.13186 -2.15846,0.11541 -4.3099,0.3066 -6.46133,0.46484 -2.35499,0.10552 -4.70648,0.31317 -7.06498,0.2901 -2.23918,-0.004 -4.47835,0.004 -6.71754,-0.01 -1.82854,-0.004 -3.6606,0.007 -5.49265,0.004 -1.71975,-0.01 -3.44301,-0.0164 -5.16273,-0.0988 -1.59692,-0.0955 -3.18682,-0.25712 -4.78372,-0.34284 -1.38632,-0.0329 -2.77264,-0.0758 -4.14844,-0.25055 -1.33719,-0.16813 -2.6779,-0.28021 -4.02211,-0.389 -1.94786,-0.2077 -3.89574,-0.46813 -5.85765,-0.54725 -1.87066,-0.0659 -3.74132,-0.0362 -5.61198,-0.0461 -1.93734,0.007 -3.87468,0.0165 -5.81205,0.0165 -1.95488,0 -3.90977,-0.0165 -5.86467,-0.0165 -1.33017,-0.004 -2.65683,0 -3.98699,-0.0461 -1.13364,-0.056 -2.26376,-0.14175 -3.38685,-0.29009 -1.33368,-0.12531 -2.67439,-0.0758 -4.01508,-0.0891 -1.8145,-0.0164 -3.62901,-0.0528 -5.44001,-0.16153 -1.85311,-0.11541 -3.70271,-0.2868 -5.56285,-0.25714 -1.01079,-0.007 -2.02158,-0.01 -3.03587,0.01 -1.18629,0.0263 -2.37606,0.0594 -3.55882,0.1846 -0.9792,0.11541 -1.95138,0.27692 -2.94111,0.21758 -1.07396,0.004 -2.14794,0.007 -3.22189,0.007 -1.33368,0 -2.66666,0.01 -4.00034,0.004 l -4.58013,0.01 c -1.60463,-0.007 -3.2096,-0.01 -4.81459,0 -1.79625,0.004 -3.59287,0.01 -5.38913,-0.0198 l 5.31647,3.62961 z"
       style="fill:#000000"
       id="path2609"
       inkscape:connector-curvature="0" />
    <text
       sodipodi:linespacing="125%"
       id="text4112"
       y="410.74994"
       x="304.43729"
       style="font-size:29.33240128px;font-style:normal;font-variant:normal;font-weight:bold;font-stretch:normal;line-height:125%;letter-spacing:0px;word-spacing:0px;fill:#000055;fill-opacity:1;stroke:none;font-family:Helvetica Neue;-inkscape-font-specification:Helvetica Neue Bold"
       xml:space="preserve"
       transform="scale(0.94979182,1.0528623)"><tspan
         y="410.74994"
         x="304.43729"
         id="tspan4114"
         sodipodi:role="line">Thought</tspan></text>
    <path
       inkscape:connector-curvature="0"
       id="path6873"
       style="fill:none;stroke:#000000;stroke-width:6"
       d="m 156.22837,656.37578 c -2.82,-3 -2.76,-6.78 0.14,-9.51 3.01,-2.82 6.78,-2.77 9.51,0.14 2.83,3 2.77,6.78 -0.14,9.51 -3,2.82 -6.78,2.76 -9.51,-0.14 z m 20.59,-12.25 c -7.53,-4.09 -7.41,-15.98 0.21,-19.92 5.74,-2.97 12.71,-0.97 15.51,4.45 5.34,10.32 -5.52,21 -15.72,15.47 z m 29.24,-18.68 c -9.87,-5.28 -13.81,-17.31 -8.75,-26.76 5.27,-9.87 17.3,-13.8 26.75,-8.75 9.87,5.28 13.8,17.3 8.75,26.75 -5.28,9.87 -17.3,13.81 -26.75,8.76 z m 149.11,-18.3 c -12.88,-2.8 -21.11,-6.21 -30.96,-12.85 l -5.34,-3.6 -9.16,4.52 c -5.03,2.48 -12.3,5.17 -16.15,5.98 -36.02,7.51 -71.3,-14.34 -80.5,-49.88 -1.25,-4.84 -2.27,-7.01 -3.17,-6.77 -0.73,0.2 -4.93,0.59 -9.33,0.87 -14.57,0.95 -26.44,-3.74 -36.7,-14.49 -6.1,-6.4 -8.75,-10.94 -11.19,-19.17 -3.28,-11.07 -1.27,-26.63 4.72,-36.43 3.78,-6.2 12.29,-14.13 18.51,-17.25 l 5.75,-2.89 1.25,-6.5 c 4.73,-24.59 27.01,-43 52.07,-43 h 5.8 l 0.64,-6.08 c 2.49,-23.82 20.48,-45.6 44.65,-54.06 5.52,-1.93 8.53,-2.27 20,-2.27 11.47,0 14.48,0.34 20,2.27 18.26,6.39 32.79,19.82 40.13,37.06 1.57,3.7 3.36,6.49 4.08,6.38 0.71,-0.11 3.99,-1.19 7.29,-2.38 8.17,-2.97 22.66,-3.67 31.73,-1.54 17.52,4.12 33.12,16.4 40.49,31.85 2.31,4.84 3.12,5.73 4.78,5.25 4.46,-1.29 18.37,-1.63 24,-0.58 9.65,1.81 19.76,7.2 27.51,14.69 22.33,21.55 22.87,55.19 1.27,77.57 -11.45,11.86 -25.83,17.48 -42.42,16.58 l -8.63,-0.47 -1.2,7.44 c -6.69,41.45 -42.12,71.47 -84.03,71.2 -5.23,-0.04 -12.38,-0.69 -15.89,-1.45 z"
       inkscape:export-ydpi="241.6386"
       inkscape:export-filename="C:\Documents and Settings\HP_Omistaja\Työpöytä\f.png"
       inkscape:export-xdpi="241.6386" />
    <path
       inkscape:connector-curvature="0"
       id="path3169"
       sodipodi:nodetypes="cccc"
       style="fill:url(#linearGradient4275);fill-rule:evenodd;stroke:#f8df37;stroke-width:2.08996391;stroke-opacity:0.375"
       d="m 241.91366,448.21847 c 20.34906,-9.42674 40.07126,-2.13331 39.19356,-2.56082 0.21831,-0.70968 -1.46804,-33.27149 25.75182,-45.32105 -39.47202,0.27789 -64.94538,21.75419 -64.94538,47.88187 z" />
  </g>
</svg>
